HIERARCHY
ROOT Hips
{
  OFFSET 179.979 97.3047 303.174
  CHANNELS 6 Xposition Yposition Zposition Zrotation Xrotation Yrotation
  JOINT Spine
  {
    OFFSET 0.000859786 9.92346 -1.22733
    CHANNELS 3 Zrotation Xrotation Yrotation
    JOINT Spine1
    {
      OFFSET 0 11.732 0
      CHANNELS 3 Zrotation Xrotation Yrotation
      JOINT Spine2
      {
        OFFSET 0 13.4588 0
        CHANNELS 3 Zrotation Xrotation Yrotation
        JOINT Neck
        {
          OFFSET 2.54812e-05 15.0278 0.877907
          CHANNELS 3 Zrotation Xrotation Yrotation
          JOINT Head
          {
            OFFSET 0 10.3218 3.14243
            CHANNELS 3 Zrotation Xrotation Yrotation
            End Site
            {
              OFFSET 0 0 0
            }
          }
        }
        JOINT LeftShoulder
        {
          OFFSET 6.10582 9.10629 0.757062
          CHANNELS 3 Zrotation Xrotation Yrotation
          JOINT LeftArm
          {
            OFFSET 0 12.9223 0
            CHANNELS 3 Zrotation Xrotation Yrotation
            JOINT LeftForeArm
            {
              OFFSET 0 27.4047 0
              CHANNELS 3 Zrotation Xrotation Yrotation
              JOINT LeftHand
              {
                OFFSET -1.28204e-05 27.6145 0
                CHANNELS 3 Zrotation Xrotation Yrotation
                End Site
                {
                  OFFSET 0 0 0
                }
              }
            }
          }
        }
        JOINT RightShoulder
        {
          OFFSET -6.1057 9.10638 0.757076
          CHANNELS 3 Zrotation Xrotation Yrotation
          JOINT RightArm
          {
            OFFSET 0 12.9223 0
            CHANNELS 3 Zrotation Xrotation Yrotation
            JOINT RightForeArm
            {
              OFFSET 0 27.4047 0
              CHANNELS 3 Zrotation Xrotation Yrotation
              JOINT RightHand
              {
                OFFSET 1.28428e-05 27.6145 1.44975e-05
                CHANNELS 3 Zrotation Xrotation Yrotation
                End Site
                {
                  OFFSET 0 0 0
                }
              }
            }
          }
        }
      }
    }
  }
  JOINT LeftUpLeg
  {
    OFFSET 9.12387 -6.65719 -0.0554031
    CHANNELS 3 Zrotation Xrotation Yrotation
    JOINT LeftLeg
    {
      OFFSET 0 40.5994 0
      CHANNELS 3 Zrotation Xrotation Yrotation
      JOINT LeftFoot
      {
        OFFSET 0 42.099 0
        CHANNELS 3 Zrotation Xrotation Yrotation
        JOINT LeftToeBase
        {
          OFFSET 0 15.7216 0
          CHANNELS 3 Zrotation Xrotation Yrotation
          End Site
          {
            OFFSET 0 0 0
          }
        }
      }
    }
  }
  JOINT RightUpLeg
  {
    OFFSET -9.12503 -6.6556 -0.0553527
    CHANNELS 3 Zrotation Xrotation Yrotation
    JOINT RightLeg
    {
      OFFSET 0 40.5994 0
      CHANNELS 3 Zrotation Xrotation Yrotation
      JOINT RightFoot
      {
        OFFSET 0 42.099 0
        CHANNELS 3 Zrotation Xrotation Yrotation
        JOINT RightToeBase
        {
          OFFSET 0 15.7216 0
          CHANNELS 3 Zrotation Xrotation Yrotation
          End Site
          {
            OFFSET 0 0 0
          }
        }
      }
    }
  }
}
MOTION
Frames:	8
Frame Time:	0.0333333
171.157 98.8575 38.9946 -1.44002 -6.19744 -5.22271 0.326036 -4.99834 -0.0242776 0.697546 3.95197 -0.149728 0.716484 10.5464 -0.151449 -2.3604 9.53262 -4.41254 4.99436 -7.852 -6.23476 -88.6099 -19.3686 89.8268 20.0411 1.35294 -8.27615 11.3622 -16.014 -0.742646 -15.023 16.1757 -4.53902 87.3289 -8.2256 -90.6571 -10.2876 6.54998 19.8306 -21.7493 -20.6433 1.02778 18.0107 15.7805 -19.2183 -174.062 -6.02917 -10.59 -3.25131 -15.5594 -5.0641 16.8301 78.6241 -17.8338 -0.965277 26.367 -3.60229 177.202 -3.89426 -0.63559 4.22458 -18.5917 13.8697 -34.4801 75.207 38.1115 0.963543 26.3682 3.55537 
171.155 98.8591 38.9872 -1.4369 -6.19397 -5.21477 0.326093 -4.99968 -0.0259246 0.695717 3.94929 -0.15265 0.714997 10.5437 -0.154428 -2.35912 9.52886 -4.41293 4.99057 -7.852 -6.2344 -88.6089 -19.3733 89.8264 20.0435 1.35289 -8.28381 11.361 -16.014 -0.742646 -15.0227 16.1699 -4.53275 87.3295 -8.22629 -90.657 -10.2894 6.55335 19.8345 -21.7462 -20.6433 1.02778 18.019 15.7791 -19.2337 -174.061 -6.02939 -10.5769 -3.25864 -15.5336 -5.06383 16.8137 78.611 -17.8122 -0.965277 26.367 -3.60229 177.202 -3.89065 -0.632538 4.2237 -18.5845 13.8724 -34.4805 75.2016 38.1086 0.963543 26.3682 3.55537 
171.144 98.8678 38.9476 -1.41965 -6.17379 -5.16176 0.326435 -5.00738 -0.0359944 0.683267 3.93386 -0.170574 0.704665 10.5283 -0.172625 -2.32356 9.50541 -4.42527 4.9501 -7.85762 -6.22477 -88.5939 -19.4053 89.8239 20.0661 1.35266 -8.32935 11.3496 -16.014 -0.742646 -15.0304 16.1307 -4.48158 87.3419 -8.24163 -90.6563 -10.3014 6.56591 19.8487 -21.7143 -20.6442 1.02779 18.0516 15.7747 -19.2621 -174.054 -6.03077 -10.5051 -3.28884 -15.4135 -5.06242 16.7276 78.5431 -17.7025 -0.965277 26.367 -3.60229 177.204 -3.86101 -0.603644 4.2214 -18.5577 13.8859 -34.4806 75.1753 38.0932 0.963543 26.3682 3.55537 
171.133 98.8747 38.9125 -1.40488 -6.15634 -5.09515 0.324471 -5.01437 -0.0453654 0.670181 3.91987 -0.186242 0.693399 10.5143 -0.188525 -2.25819 9.4579 -4.45744 4.88821 -7.83312 -6.21961 -88.5686 -19.4357 89.8217 20.1058 1.35248 -8.37447 11.3325 -16.014 -0.742646 -15.0352 16.0901 -4.4603 87.36 -8.29974 -90.6575 -10.3399 6.57538 19.8515 -21.6644 -20.6541 1.02786 18.0467 15.8017 -19.2288 -174.045 -6.01829 -10.4324 -3.30804 -15.3285 -5.06135 16.6566 78.4879 -17.6152 -0.965277 26.367 -3.60229 177.208 -3.83994 -0.554131 4.21819 -18.5332 13.8945 -34.4763 75.1557 38.078 0.963543 26.3682 3.55537 
171.123 98.8781 38.8838 -1.40449 -6.14422 -5.05372 0.323295 -5.02073 -0.0492232 0.662322 3.90711 -0.193533 0.686407 10.5016 -0.195929 -2.2118 9.40033 -4.47945 4.85468 -7.78416 -6.21705 -88.5432 -19.4817 89.8182 20.1572 1.34737 -8.40579 11.3175 -16.014 -0.742646 -15.0345 16.0408 -4.49451 87.3782 -8.35654 -90.6549 -10.3789 6.58355 19.8485 -21.6165 -20.667 1.02794 18.0329 15.8387 -19.1729 -174.026 -5.99446 -10.384 -3.32082 -15.2981 -5.06036 16.6128 78.4613 -17.5666 -0.965277 26.367 -3.60229 177.226 -3.82043 -0.522545 4.21099 -18.522 13.8987 -34.4744 75.1437 38.0702 0.963543 26.3682 3.55537 
171.113 98.8779 38.8595 -1.41293 -6.14122 -5.03211 0.32231 -5.0268 -0.0518251 0.657943 3.89498 -0.194556 0.682147 10.4894 -0.196963 -2.19153 9.35727 -4.48498 4.85024 -7.73326 -6.21486 -88.5219 -19.5218 89.815 20.2006 1.33701 -8.42064 11.3079 -16.014 -0.742646 -15.0452 15.9685 -4.56196 87.3926 -8.39865 -90.6522 -10.4073 6.59095 19.8412 -21.5828 -20.674 1.02799 18.0203 15.8702 -19.1263 -174.001 -5.96926 -10.3785 -3.32249 -15.3059 -5.04196 16.5339 78.4579 -17.4899 -0.965277 26.367 -3.60229 177.25 -3.80364 -0.506662 4.20195 -18.525 13.9009 -34.4739 75.1381 38.0666 0.963543 26.3682 3.55537 
171.105 98.8778 38.8402 -1.42429 -6.15689 -5.02574 0.321491 -5.03128 -0.0533208 0.655461 3.88607 -0.190813 0.679208 10.4805 -0.193126 -2.18201 9.34704 -4.48902 4.85002 -7.70451 -6.215 -88.504 -19.5415 89.8135 20.2213 1.32652 -8.42305 11.3097 -16.014 -0.742646 -15.067 15.8492 -4.61572 87.4001 -8.42577 -90.6498 -10.4347 6.59888 19.8867 -21.5575 -20.651 1.02784 18.0073 15.8749 -19.1609 -173.977 -5.97442 -10.3985 -3.32051 -15.3063 -5.01823 16.423 78.455 -17.3843 -0.965277 26.367 -3.60229 177.273 -3.80499 -0.509896 4.19711 -18.5311 13.9081 -34.4848 75.1331 38.0739 0.963543 26.3682 3.55537 
171.098 98.8776 38.8244 -1.42461 -6.17663 -5.02997 0.32081 -5.03749 -0.0538608 0.652937 3.87365 -0.183149 0.674544 10.4681 -0.185382 -2.17497 9.35895 -4.49739 4.85152 -7.69202 -6.22095 -88.4934 -19.5415 89.8138 20.2199 1.3159 -8.42414 11.3261 -16.014 -0.742646 -15.0918 15.7064 -4.66461 87.3964 -8.44968 -90.6496 -10.473 6.62402 19.8908 -21.5418 -20.6562 1.02787 18.0102 15.8715 -19.1919 -173.973 -5.99299 -10.3608 -3.32834 -15.2902 -5.03918 16.5037 78.4449 -17.4574 -0.965277 26.367 -3.60229 177.283 -3.81105 -0.528083 4.19632 -18.5396 13.9145 -34.4994 75.13 38.0854 0.963543 26.3682 3.55537 
